<svg width="2900" height="800" viewBox="0 0 2900 800" fill="none" xmlns="http://www.w3.org/2000/svg">
<path d="M400 120H603C642.203 120 661.807 120 676.78 127.63C689.951 134.341 700.661 145.049 707.37 158.221C715 173.194 715 192.796 715 232V540M85 540V400M50 540H750V568C750 607.203 750 626.807 742.37 641.78C735.661 654.951 724.951 665.661 711.78 672.37C696.807 680 677.203 680 638 680H162C122.796 680 103.194 680 88.2207 672.37C75.0492 665.661 64.3405 654.951 57.6296 641.78C50 626.807 50 607.203 50 568V540Z" stroke="black" stroke-width="66.6667" stroke-linecap="round" stroke-linejoin="round"/>
<path d="M100 100L183.333 183.333L266.667 266.667M266.667 100L100 266.667" stroke="black" stroke-width="66.6667" stroke-linecap="round" stroke-linejoin="round"/>
<path d="M1450 266.667V400" stroke="black" stroke-width="66.67" stroke-linecap="round"/>
<path d="M1450 533.333C1468.41 533.333 1483.33 518.41 1483.33 500C1483.33 481.591 1468.41 466.667 1450 466.667C1431.59 466.667 1416.67 481.591 1416.67 500C1416.67 518.41 1431.59 533.333 1450 533.333Z" fill="black"/>
<path d="M1158 348.543C1158 244.62 1158 192.659 1170.27 175.178C1182.54 157.698 1231.4 140.974 1329.11 107.526L1347.73 101.153C1398.66 83.7178 1424.13 75 1450.5 75C1476.87 75 1502.34 83.7178 1553.27 101.153L1571.89 107.526C1669.61 140.974 1718.46 157.698 1730.73 175.178C1743 192.659 1743 244.62 1743 348.543C1743 364.237 1743 381.26 1743 399.72C1743 481.13 1715.8 543.923 1678 591.883M1164.27 465C1192.13 604.698 1306.73 676.669 1382.2 709.637C1405.65 719.878 1417.37 725 1450.5 725C1483.63 725 1495.35 719.878 1518.8 709.637C1537.59 701.428 1558.8 690.804 1580.5 677.316" stroke="black" stroke-width="66.67" stroke-linecap="round"/>
<path d="M2402.5 523.5C2430.14 503.015 2463.75 491 2500 491C2536.25 491 2569.86 503.015 2597.5 523.5" stroke="black" stroke-width="66.67" stroke-linecap="round"/>
<path d="M2597.5 361C2615.45 361 2630 339.174 2630 312.25C2630 285.326 2615.45 263.5 2597.5 263.5C2579.55 263.5 2565 285.326 2565 312.25C2565 339.174 2579.55 361 2597.5 361Z" fill="black"/>
<path d="M2402.5 361C2420.45 361 2435 339.174 2435 312.25C2435 285.326 2420.45 263.5 2402.5 263.5C2384.55 263.5 2370 285.326 2370 312.25C2370 339.174 2384.55 361 2402.5 361Z" fill="black"/>
<path d="M2337.5 118.479C2385.3 90.8265 2440.8 75 2500 75C2679.49 75 2825 220.507 2825 400C2825 579.491 2679.49 725 2500 725C2320.51 725 2175 579.491 2175 400C2175 340.804 2190.83 285.303 2218.48 237.5" stroke="black" stroke-width="66.67" stroke-linecap="round"/>
</svg>
