<svg width="2900" height="800" viewBox="0 0 2900 800" fill="none" xmlns="http://www.w3.org/2000/svg">
<path d="M304 144V80M496 656V720M144 304H80M656 496H720M173.255 173.255L128 128M626.746 626.746L672 672M400 581.021L332.118 648.902C282.131 698.89 201.085 698.89 151.099 648.902C101.111 598.915 101.111 517.869 151.099 467.882L218.981 400M581.021 400L648.902 332.118C698.89 282.131 698.89 201.085 648.902 151.099C598.915 101.111 517.869 101.111 467.882 151.099L400 218.981" stroke="black" stroke-width="66.6667" stroke-linecap="round" stroke-linejoin="round"/>
<path d="M1483.67 100H1323.67C1286.33 100 1267.66 100 1253.4 107.266C1240.86 113.658 1230.66 123.856 1224.27 136.401C1217 150.661 1217 169.33 1217 206.667V593.333C1217 630.67 1217 649.34 1224.27 663.6C1230.66 676.143 1240.86 686.343 1253.4 692.733C1267.66 700 1286.33 700 1323.67 700H1453.67M1483.67 100L1683.67 300M1483.67 100V246.667C1483.67 265.335 1483.67 274.669 1487.3 281.8C1490.5 288.072 1495.59 293.171 1501.87 296.367C1509 300 1518.33 300 1537 300H1683.67M1683.67 300V370" stroke="black" stroke-width="66.6667" stroke-linecap="round" stroke-linejoin="round"/>
<path d="M1574.34 591.763C1561.32 604.78 1561.32 625.887 1574.34 638.903C1587.35 651.92 1608.46 651.92 1621.48 638.903L1574.34 591.763ZM1501.06 507.023C1496.47 524.853 1507.2 543.027 1525.03 547.613C1542.86 552.203 1561.03 541.47 1565.62 523.643L1501.06 507.023ZM1597.92 665.333C1579.51 665.333 1564.59 680.257 1564.59 698.667C1564.59 717.077 1579.51 732 1597.92 732V665.333ZM1598.26 732C1616.67 732 1631.59 717.077 1631.59 698.667C1631.59 680.257 1616.67 665.333 1598.26 665.333V732ZM1631.24 532C1631.24 537.773 1629.72 542.177 1620.59 550.99C1615.47 555.933 1609.43 560.843 1601.07 567.8C1593.13 574.41 1583.81 582.29 1574.34 591.763L1621.48 638.903C1628.67 631.71 1636.02 625.443 1643.7 619.053C1650.96 613.017 1659.51 606.077 1666.89 598.957C1682.76 583.643 1697.91 563.047 1697.91 532H1631.24ZM1597.91 498.667C1616.32 498.667 1631.24 513.59 1631.24 532H1697.91C1697.91 476.77 1653.13 432 1597.91 432V498.667ZM1565.62 523.643C1569.32 509.257 1582.42 498.667 1597.91 498.667V432C1551.26 432 1512.16 463.9 1501.06 507.023L1565.62 523.643ZM1597.92 732H1598.26V665.333H1597.92V732Z" fill="black"/>
<path d="M2402.5 523.5C2430.14 503.015 2463.75 491 2500 491C2536.25 491 2569.86 503.015 2597.5 523.5" stroke="black" stroke-width="66.67" stroke-linecap="round"/>
<path d="M2597.5 361C2615.45 361 2630 339.174 2630 312.25C2630 285.326 2615.45 263.5 2597.5 263.5C2579.55 263.5 2565 285.326 2565 312.25C2565 339.174 2579.55 361 2597.5 361Z" fill="black"/>
<path d="M2402.5 361C2420.45 361 2435 339.174 2435 312.25C2435 285.326 2420.45 263.5 2402.5 263.5C2384.55 263.5 2370 285.326 2370 312.25C2370 339.174 2384.55 361 2402.5 361Z" fill="black"/>
<path d="M2337.5 118.479C2385.3 90.8265 2440.8 75 2500 75C2679.49 75 2825 220.507 2825 400C2825 579.491 2679.49 725 2500 725C2320.51 725 2175 579.491 2175 400C2175 340.804 2190.83 285.303 2218.48 237.5" stroke="black" stroke-width="66.67" stroke-linecap="round"/>
</svg>
