<svg width="2900" height="800" viewBox="0 0 2900 800" fill="none" xmlns="http://www.w3.org/2000/svg">
<path d="M750 400C750 400 715.249 431.174 645.742 458.978L547.444 498.298C477.938 526.098 443.186 540 400 540C356.814 540 322.061 526.098 252.556 498.298L154.259 458.978C84.7529 431.174 50 400 50 400" stroke="black" stroke-width="66.67" stroke-linecap="round"/>
<path d="M50 540C50 540 84.7529 571.175 154.259 598.979L252.556 638.298C322.061 666.098 356.814 680 400 680C433.386 680 461.737 671.691 505 655.073M645.742 598.979C715.249 571.175 750 540 750 540" stroke="black" stroke-width="66.67" stroke-linecap="round"/>
<path d="M154.259 201.022C84.7529 228.824 50 242.726 50 260C50 277.274 84.7529 291.176 154.259 318.978L252.556 358.298C322.061 386.098 356.814 400 400 400C443.186 400 477.938 386.098 547.444 358.298L645.742 318.978C715.249 291.176 750 277.274 750 260C750 242.726 715.249 228.824 645.742 201.022L547.444 161.704C477.938 133.901 443.186 120 400 120C366.614 120 338.263 128.309 295 144.927" stroke="black" stroke-width="66.67" stroke-linecap="round"/>
<path d="M1384.88 131.837C1398.37 131.837 1409.3 120.905 1409.3 107.419C1409.3 93.9327 1398.37 83 1384.88 83V131.837ZM1515.12 83C1501.63 83 1490.7 93.9327 1490.7 107.419C1490.7 120.905 1501.63 131.837 1515.12 131.837V83ZM1482.56 717.884C1496.04 717.884 1506.98 706.951 1506.98 693.465C1506.98 679.98 1496.04 669.047 1482.56 669.047V717.884ZM1751.16 433C1751.16 446.486 1762.1 457.419 1775.58 457.419C1789.07 457.419 1800 446.486 1800 433H1751.16ZM1515.12 424.86C1528.6 424.86 1539.53 413.927 1539.53 400.442C1539.53 386.956 1528.6 376.023 1515.12 376.023V424.86ZM1645.35 376.023C1631.86 376.023 1620.93 386.956 1620.93 400.442C1620.93 413.927 1631.86 424.86 1645.35 424.86V376.023ZM1148.84 433V400.442H1100V433H1148.84ZM1148.84 400.442V367.884H1100V400.442H1148.84ZM1482.56 669.047H1384.88V717.884H1482.56V669.047ZM1751.16 367.884V400.442H1800V367.884H1751.16ZM1100 433C1100 493.701 1099.95 541.686 1104.99 579.154C1110.12 617.325 1120.93 648.222 1145.3 672.589L1179.83 638.054C1166.05 624.276 1157.79 605.402 1153.39 572.648C1148.89 539.188 1148.84 495.082 1148.84 433H1100ZM1384.88 669.047C1322.8 669.047 1278.7 668.994 1245.24 664.495C1212.48 660.093 1193.61 651.833 1179.83 638.054L1145.3 672.589C1169.66 696.952 1200.56 707.765 1238.73 712.899C1276.2 717.936 1324.18 717.884 1384.88 717.884V669.047ZM1515.12 131.837C1577.2 131.837 1621.3 131.889 1654.76 136.388C1687.52 140.791 1706.39 149.05 1720.17 162.829L1754.71 128.296C1730.34 103.931 1699.44 93.1178 1661.27 87.9857C1623.8 82.9483 1575.82 83 1515.12 83V131.837ZM1800 367.884C1800 307.182 1800.05 259.199 1795.02 221.73C1789.88 183.557 1779.07 152.662 1754.71 128.296L1720.17 162.829C1733.95 176.608 1742.21 195.481 1746.61 228.237C1751.11 261.696 1751.16 305.801 1751.16 367.884H1800ZM1384.88 83C1324.18 83 1276.2 82.9483 1238.73 87.9857C1200.56 93.1178 1169.66 103.931 1145.3 128.296L1179.83 162.829C1193.61 149.05 1212.48 140.791 1245.24 136.388C1278.7 131.889 1322.8 131.837 1384.88 131.837V83ZM1148.84 367.884C1148.84 305.801 1148.89 261.696 1153.39 228.237C1157.79 195.481 1166.05 176.608 1179.83 162.829L1145.3 128.296C1120.93 152.662 1110.12 183.557 1104.99 221.73C1099.95 259.199 1100 307.182 1100 367.884H1148.84ZM1751.16 400.442V433H1800V400.442H1751.16ZM1124.42 424.86H1515.12V376.023H1124.42V424.86ZM1645.35 424.86H1775.58V376.023H1645.35V424.86Z" fill="black"/>
<path d="M1498.84 253.93H1645.35" stroke="black" stroke-width="66.67" stroke-linecap="round"/>
<path d="M1254.65 579.512V514.396" stroke="black" stroke-width="66.67" stroke-linecap="round"/>
<path d="M1254.65 286.488V221.372" stroke="black" stroke-width="66.67" stroke-linecap="round"/>
<path d="M1352.33 579.512V514.396" stroke="black" stroke-width="66.67" stroke-linecap="round"/>
<path d="M1352.33 286.488V221.372" stroke="black" stroke-width="66.67" stroke-linecap="round"/>
<path d="M1616 533L1782.67 699.667M1782.67 533L1616 699.667" stroke="black" stroke-width="66.6667" stroke-linecap="round" stroke-linejoin="round"/>
<path d="M2402.5 523.5C2430.14 503.015 2463.75 491 2500 491C2536.25 491 2569.86 503.015 2597.5 523.5" stroke="black" stroke-width="66.67" stroke-linecap="round"/>
<path d="M2597.5 361C2615.45 361 2630 339.174 2630 312.25C2630 285.326 2615.45 263.5 2597.5 263.5C2579.55 263.5 2565 285.326 2565 312.25C2565 339.174 2579.55 361 2597.5 361Z" fill="black"/>
<path d="M2402.5 361C2420.45 361 2435 339.174 2435 312.25C2435 285.326 2420.45 263.5 2402.5 263.5C2384.55 263.5 2370 285.326 2370 312.25C2370 339.174 2384.55 361 2402.5 361Z" fill="black"/>
<path d="M2337.5 118.479C2385.3 90.8265 2440.8 75 2500 75C2679.49 75 2825 220.507 2825 400C2825 579.491 2679.49 725 2500 725C2320.51 725 2175 579.491 2175 400C2175 340.804 2190.83 285.303 2218.48 237.5" stroke="black" stroke-width="66.67" stroke-linecap="round"/>
</svg>
