<svg width="2900" height="800" viewBox="0 0 2900 800" fill="none" xmlns="http://www.w3.org/2000/svg">
<path d="M302.5 530C302.5 547.95 287.949 562.5 270 562.5C252.051 562.5 237.5 547.95 237.5 530C237.5 512.05 252.051 497.5 270 497.5C287.949 497.5 302.5 512.05 302.5 530Z" fill="black"/>
<path d="M432.5 530C432.5 547.95 417.95 562.5 400 562.5C382.05 562.5 367.5 547.95 367.5 530C367.5 512.05 382.05 497.5 400 497.5C417.95 497.5 432.5 512.05 432.5 530Z" fill="black"/>
<path d="M562.5 530C562.5 547.95 547.95 562.5 530 562.5C512.05 562.5 497.5 547.95 497.5 530C497.5 512.05 512.05 497.5 530 497.5C547.95 497.5 562.5 512.05 562.5 530Z" fill="black"/>
<path d="M205 335V270C205 258.927 205.923 248.069 207.696 237.5M595 335V270C595 162.304 507.695 75 400 75C341.76 75 289.481 100.533 253.75 141.016" stroke="black" stroke-width="66.67" stroke-linecap="round"/>
<path d="M367.5 725H270C178.076 725 132.114 725 103.557 696.442C75 667.884 75 621.923 75 530C75 438.077 75 392.115 103.557 363.558C132.114 335 178.076 335 270 335H530C621.923 335 667.884 335 696.442 363.558C725 392.115 725 438.077 725 530C725 621.923 725 667.884 696.442 696.442C667.884 725 621.923 725 530 725H497.5" stroke="black" stroke-width="66.67" stroke-linecap="round"/>
<path d="M1265.05 302C1339.34 172 1383.97 107 1450 107C1525.1 107 1572.52 191.083 1667.37 359.249L1679.19 380.205C1758.01 519.948 1797.42 589.82 1761.8 640.91C1726.18 692 1638.06 692 1461.82 692H1438.18C1261.94 692 1173.82 692 1138.2 640.91C1107.29 596.564 1132.9 538.064 1191.75 432" stroke="black" stroke-width="66.67" stroke-linecap="round"/>
<path d="M1450 269.5V432" stroke="black" stroke-width="66.67" stroke-linecap="round"/>
<path d="M1450 562C1467.95 562 1482.5 547.449 1482.5 529.5C1482.5 511.551 1467.95 497 1450 497C1432.05 497 1417.5 511.551 1417.5 529.5C1417.5 547.449 1432.05 562 1450 562Z" fill="black"/>
<path d="M2402.5 523.5C2430.14 503.015 2463.75 491 2500 491C2536.25 491 2569.86 503.015 2597.5 523.5" stroke="black" stroke-width="66.67" stroke-linecap="round"/>
<path d="M2597.5 361C2615.45 361 2630 339.174 2630 312.25C2630 285.326 2615.45 263.5 2597.5 263.5C2579.55 263.5 2565 285.326 2565 312.25C2565 339.174 2579.55 361 2597.5 361Z" fill="black"/>
<path d="M2402.5 361C2420.45 361 2435 339.174 2435 312.25C2435 285.326 2420.45 263.5 2402.5 263.5C2384.55 263.5 2370 285.326 2370 312.25C2370 339.174 2384.55 361 2402.5 361Z" fill="black"/>
<path d="M2337.5 118.479C2385.3 90.8265 2440.8 75 2500 75C2679.49 75 2825 220.507 2825 400C2825 579.491 2679.49 725 2500 725C2320.51 725 2175 579.491 2175 400C2175 340.804 2190.83 285.303 2218.48 237.5" stroke="black" stroke-width="66.67" stroke-linecap="round"/>
</svg>
