<svg width="512" height="512" viewBox="0 0 512 512" fill="none" xmlns="http://www.w3.org/2000/svg">
<rect width="512" height="512" rx="64" fill="white"/>
<path d="M259.396 90.625H436.412V135.472H259.396V90.625ZM259.396 192.333H396.454V235.979H259.396V192.333ZM234.622 90.625H280.974V204.746C280.974 222.364 280.308 241.585 278.976 262.407C277.644 282.962 274.98 304.051 270.984 325.674C266.988 347.297 261.128 368.252 253.403 388.54C245.944 408.561 236.087 426.714 223.833 442.998C221.17 440.061 217.44 436.725 212.645 432.987C208.117 429.25 203.322 425.513 198.26 421.775C193.199 418.305 188.936 415.769 185.473 414.167C196.928 399.218 205.852 382.934 212.246 365.316C218.905 347.697 223.833 329.544 227.03 310.858C230.227 291.905 232.225 273.352 233.024 255.199C234.089 237.047 234.622 220.229 234.622 204.746V90.625ZM308.146 224.367C315.338 251.328 325.195 276.689 337.715 300.447C350.235 323.939 365.553 344.627 383.667 362.513C402.048 380.398 423.492 394.413 448 404.557C444.271 407.761 440.408 411.631 436.412 416.17C432.416 420.975 428.554 425.913 424.824 430.985C421.095 436.057 418.031 440.729 415.634 445C389.794 432.186 367.417 415.502 348.504 394.947C329.59 374.125 313.607 350.1 300.554 322.871C287.501 295.642 276.579 265.744 267.788 233.176L308.146 224.367ZM387.663 192.333H396.054L404.046 190.731L434.015 199.941C427.621 241.051 417.498 277.222 403.646 308.456C390.06 339.689 373.145 366.383 352.899 388.54C332.653 410.697 309.344 428.983 282.972 443.398C281.107 439.661 278.443 435.39 274.98 430.585C271.784 425.78 268.32 421.108 264.591 416.57C261.128 412.032 257.665 408.428 254.202 405.758C277.111 395.081 297.623 379.864 315.738 360.11C334.119 340.356 349.436 316.998 361.69 290.036C373.944 262.807 382.601 233.042 387.663 200.742V192.333ZM74.3891 149.888H217.041V194.335H74.3891V149.888ZM127.134 67H172.287V442.998H127.134V67ZM125.536 180.72L153.507 190.33C150.577 206.347 146.847 222.898 142.318 239.983C137.79 257.068 132.595 273.886 126.735 290.436C121.14 306.987 114.88 322.47 107.954 336.886C101.294 351.034 94.2352 363.314 86.7763 373.725C84.3788 367.051 80.9157 359.443 76.3871 350.9C71.8585 342.358 67.7294 335.15 64 329.278C70.9261 320.468 77.4526 310.191 83.5796 298.445C89.9729 286.699 95.8335 274.286 101.161 261.206C106.755 247.858 111.55 234.377 115.546 220.763C119.542 206.881 122.872 193.534 125.536 180.72ZM170.689 213.956C173.086 216.625 176.816 221.43 181.877 228.371C187.205 235.311 192.799 242.786 198.66 250.794C204.787 258.803 210.248 266.144 215.043 272.818C219.838 279.492 223.168 284.297 225.032 287.233L198.26 324.472C195.596 318.333 192.133 311.125 187.871 302.85C183.875 294.574 179.48 286.299 174.685 278.023C169.89 269.481 165.228 261.472 160.699 253.998C156.171 246.256 152.441 239.85 149.511 234.778L170.689 213.956Z" fill="#00598A"/>
</svg>
