<svg width="512" height="512" viewBox="0 0 512 512" fill="none" xmlns="http://www.w3.org/2000/svg">
<rect width="512" height="512" rx="256" fill="white"/>
<path fill-rule="evenodd" clip-rule="evenodd" d="M256.212 0C114.533 0 0 114.468 0 256.081C0 369.28 73.3854 465.1 175.19 499.014C187.919 501.564 192.581 493.504 192.581 486.724C192.581 480.788 192.161 460.438 192.161 439.236C120.89 454.501 106.048 408.709 106.048 408.709C94.594 379.03 77.6229 371.403 77.6229 371.403C54.2957 355.715 79.3221 355.715 79.3221 355.715C105.198 357.412 118.776 382.001 118.776 382.001C141.679 421.004 178.584 409.984 193.431 403.199C195.549 386.663 202.341 375.217 209.552 368.858C152.708 362.922 92.9 340.876 92.9 242.511C92.9 214.529 103.074 191.636 119.196 173.83C116.652 167.472 107.742 141.181 121.744 105.992C121.744 105.992 143.378 99.2076 192.156 132.279C213.04 126.673 234.577 123.821 256.212 123.797C277.845 123.797 299.898 126.768 320.262 132.279C369.046 99.2076 390.679 105.992 390.679 105.992C404.682 141.181 395.766 167.472 393.223 173.83C409.769 191.636 419.524 214.529 419.524 242.511C419.524 340.876 359.716 362.495 302.447 368.858C311.782 376.913 319.837 392.174 319.837 416.342C319.837 450.682 319.418 478.243 319.418 486.719C319.418 493.504 324.085 501.564 336.808 499.019C438.613 465.095 511.999 369.28 511.999 256.081C512.418 114.468 397.466 0 256.212 0Z" fill="#24292F"/>
</svg>
